<?xml version="1.0" encoding="UTF-8" standalone="no"?>
<svg
   xmlns:dc="http://purl.org/dc/elements/1.1/"
   xmlns:cc="http://creativecommons.org/ns#"
   xmlns:rdf="http://www.w3.org/1999/02/22-rdf-syntax-ns#"
   xmlns:svg="http://www.w3.org/2000/svg"
   xmlns="http://www.w3.org/2000/svg"
   version="1.1"
   id="svg1679"
   width="1110"
   height="515"
   viewBox="0 0 1110 515">
  <metadata
     id="metadata1685">
    <rdf:RDF>
      <cc:Work
         rdf:about="">
        <dc:format>image/svg+xml</dc:format>
        <dc:type
           rdf:resource="http://purl.org/dc/dcmitype/StillImage" />
        <dc:title></dc:title>
      </cc:Work>
    </rdf:RDF>
  </metadata>
  <defs
     id="defs1683" />
  <g
     id="g1687">
    <g
       style="opacity:1;fill:#000000"
       id="g2307"
       transform="matrix(2.3416202,0,0,2.314458,-366.21653,-200.98313)">
      <path
         d="M 460.473,13.5551 V 139.045 c 0,23.896 -19.663,43.32 -43.928,43.32 H 280.161 c -16.037,0 -31.238,5.87 -43.231,16.49 -11.853,-10.76 -27.054,-16.49 -43.23,-16.49 H 57.0362 c -23.9859,0 -43.5093,-19.424 -43.5093,-43.32 V 13.5551 Z M 244.042,210.733 c 9.623,-9.642 22.452,-14.952 36.119,-14.952 h 136.384 c 31.656,0 57.455,-25.573 57.455,-56.876 V 0 H 0 v 139.045 c 0,31.302 25.6593,56.876 57.0362,56.876 H 193.839 c 13.667,0 26.496,5.31 36.119,14.952 L 237.07,218 Z"
         transform="translate(157,87)"
         fill="#000000"
         id="path2292"
         style="fill:#000000" />
      <path
         d="m 343.193,7.54615 c 0,4.19235 -3.347,7.26665 -7.53,7.26665 -4.184,0 -7.531,-3.0743 -7.531,-7.26665 0,-4.19231 3.347,-7.266662 7.531,-7.266662 4.183,0 7.53,2.934612 7.53,7.266662 z M 329.109,66.6577 h 13.108 V 20.2628 H 329.109 Z M 303.868,38.709 320.881,66.6577 h -14.085 l -11.435,-18.5859 -6.136,7.8256 V 66.6577 H 276.256 V 0 h 12.969 v 30.7436 c 0,5.7295 -0.697,11.459 -0.697,11.459 h 0.279 c 0,0 3.068,-5.0308 5.578,-8.6641 l 9.901,-13.2757 h 15.2 z m -40.721,-1.8167 c 0,-11.459 -5.578,-17.7474 -14.503,-17.7474 -7.67,0 -11.574,4.4718 -13.805,8.8038 h -0.279 l 0.697,-7.6859 h -12.969 v 46.3949 h 12.969 V 39.1282 c 0,-5.3103 3.068,-8.9436 7.949,-8.9436 4.881,0 6.972,3.2141 6.972,9.3628 v 27.1103 h 13.109 V 36.8923 Z M 209.598,7.54615 c 0,4.19235 -3.347,7.26665 -7.531,7.26665 -4.183,0 -7.53,-3.0743 -7.53,-7.26665 0,-4.19231 3.347,-7.266662 7.53,-7.266662 4.184,0 7.531,2.934612 7.531,7.266662 z M 195.513,66.6577 h 13.108 V 20.2628 H 195.513 Z M 171.945,53.8013 c 0,-3.6334 -5.159,-4.4718 -11.156,-6.1487 -6.973,-1.8167 -15.758,-5.3103 -15.758,-14.1141 0,-8.8039 8.367,-14.2539 18.268,-14.2539 9.204,0 17.711,4.4718 21.197,10.6205 l -11.156,6.2885 c -1.116,-4.1923 -4.602,-7.4064 -9.622,-7.4064 -3.347,0 -5.997,1.5372 -5.997,4.1923 0,3.4936 5.997,3.9128 12.969,6.009 7.252,2.2359 13.806,5.5897 13.806,14.1141 0,9.223 -8.646,14.8128 -18.687,14.8128 -10.877,0 -19.384,-4.6116 -23.149,-12.018 l 11.296,-6.2884 c 1.534,5.0307 5.578,8.8038 11.714,8.8038 3.765,-0.1397 6.275,-1.6769 6.275,-4.6115 z M 129.133,0.558971 H 116.025 V 53.941 c 0,4.7513 0.976,8.2449 3.068,10.4808 2.091,2.2359 5.299,3.2141 9.761,3.2141 1.534,0 3.068,-0.1398 4.742,-0.559 1.534,-0.2795 2.928,-0.8384 3.904,-1.3974 l 1.116,-8.8039 c -0.976,0.4193 -1.952,0.6988 -2.65,0.8385 -0.697,0.1397 -1.673,0.2795 -2.649,0.2795 -1.674,0 -2.371,-0.4192 -3.068,-1.2577 -0.697,-0.8385 -0.976,-2.3756 -0.976,-4.6115 V 0.558971 Z M 84.7873,28.5077 c -4.7414,0 -8.6461,3.3538 -9.6223,9.782 h 18.2684 c 0,-5.5897 -3.4864,-9.782 -8.6461,-9.782 z M 104.869,46.9538 H 74.8861 c 0.5579,7.5462 4.7414,11.1795 10.1801,11.1795 4.8809,0 8.2277,-3.2141 8.925,-7.6859 l 10.8778,6.1487 c -3.208,5.8693 -10.1806,11.0398 -19.8028,11.0398 -12.9691,0 -22.4519,-9.0833 -22.4519,-24.3154 0,-15.0923 9.6222,-24.3154 22.173,-24.3154 12.4113,0 20.6387,8.8039 20.6387,21.3808 0.14,3.9128 -0.557,6.5679 -0.557,6.5679 z M 38.9073,66.6577 h 13.527 V 2.93461 H 38.9073 V 28.0885 H 13.5269 V 2.93461 H 0 V 66.518 H 13.5269 V 40.2462 h 25.3804 z"
         transform="translate(222.822,150.164)"
         fill="#000000"
         id="path2294"
         style="fill:#000000" />
    </g>
  </g>
</svg>
