<svg width="474" height="218" viewBox="0 0 474 218" fill="white" xmlns="http://www.w3.org/2000/svg">
<path d="M460.473 13.5551V139.045C460.473 162.941 440.81 182.365 416.545 182.365H280.161C264.124 182.365 248.923 188.235 236.93 198.855C225.077 188.095 209.876 182.365 193.7 182.365H57.0362C33.0503 182.365 13.5269 162.941 13.5269 139.045V13.5551H460.473ZM244.042 210.733C253.665 201.091 266.494 195.781 280.161 195.781H416.545C448.201 195.781 474 170.208 474 138.905V0H0V139.045C0 170.347 25.6593 195.921 57.0362 195.921H193.839C207.506 195.921 220.335 201.231 229.958 210.873L237.07 218L244.042 210.733Z"/>
<path d="M343.193 7.54615C343.193 11.7385 339.846 14.8128 335.663 14.8128C331.479 14.8128 328.132 11.7385 328.132 7.54615C328.132 3.35384 331.479 0.279488 335.663 0.279488C339.846 0.279488 343.193 3.2141 343.193 7.54615ZM329.109 66.6577H342.217V20.2628H329.109V66.6577ZM303.868 38.709L320.881 66.6577H306.796L295.361 48.0718L289.225 55.8974V66.6577H276.256V0H289.225V30.7436C289.225 36.4731 288.528 42.2026 288.528 42.2026H288.807C288.807 42.2026 291.875 37.1718 294.385 33.5385L304.286 20.2628H319.486L303.868 38.709ZM263.147 36.8923C263.147 25.4333 257.569 19.1449 248.644 19.1449C240.974 19.1449 237.07 23.6167 234.839 27.9487H234.56L235.257 20.2628H222.288V66.6577H235.257V39.1282C235.257 33.8179 238.325 30.1846 243.206 30.1846C248.087 30.1846 250.178 33.3987 250.178 39.5474V66.6577H263.287V36.8923H263.147ZM209.598 7.54615C209.598 11.7385 206.251 14.8128 202.067 14.8128C197.884 14.8128 194.537 11.7385 194.537 7.54615C194.537 3.35384 197.884 0.279488 202.067 0.279488C206.251 0.279488 209.598 3.2141 209.598 7.54615ZM195.513 66.6577H208.621V20.2628H195.513V66.6577ZM171.945 53.8013C171.945 50.1679 166.786 49.3295 160.789 47.6526C153.816 45.8359 145.031 42.3423 145.031 33.5385C145.031 24.7346 153.398 19.2846 163.299 19.2846C172.503 19.2846 181.01 23.7564 184.496 29.9051L173.34 36.1936C172.224 32.0013 168.738 28.7872 163.718 28.7872C160.371 28.7872 157.721 30.3244 157.721 32.9795C157.721 36.4731 163.718 36.8923 170.69 38.9885C177.942 41.2244 184.496 44.5782 184.496 53.1026C184.496 62.3256 175.85 67.9154 165.809 67.9154C154.932 67.9154 146.425 63.3038 142.66 55.8974L153.956 49.609C155.49 54.6397 159.534 58.4128 165.67 58.4128C169.435 58.2731 171.945 56.7359 171.945 53.8013ZM129.133 0.558971H116.025V53.941C116.025 58.6923 117.001 62.1859 119.093 64.4218C121.184 66.6577 124.392 67.6359 128.854 67.6359C130.388 67.6359 131.922 67.4962 133.596 67.0769C135.13 66.7974 136.524 66.2385 137.5 65.6795L138.616 56.8756C137.64 57.2949 136.664 57.5744 135.966 57.7141C135.269 57.8538 134.293 57.9936 133.317 57.9936C131.643 57.9936 130.946 57.5744 130.249 56.7359C129.552 55.8974 129.273 54.3603 129.273 52.1244V0.558971H129.133ZM84.7873 28.5077C80.0459 28.5077 76.1412 31.8615 75.165 38.2897H93.4334C93.4334 32.7 89.947 28.5077 84.7873 28.5077ZM104.869 46.9538H74.8861C75.444 54.5 79.6275 58.1333 85.0662 58.1333C89.947 58.1333 93.2939 54.9192 93.9912 50.4474L104.869 56.5961C101.661 62.4654 94.6884 67.6359 85.0662 67.6359C72.0971 67.6359 62.6143 58.5526 62.6143 43.3205C62.6143 28.2282 72.2365 19.0051 84.7873 19.0051C97.1986 19.0051 105.426 27.809 105.426 40.3859C105.566 44.2987 104.869 46.9538 104.869 46.9538ZM38.9073 66.6577H52.4343V2.93461H38.9073V28.0885H13.5269V2.93461H0V66.518H13.5269V40.2462H38.9073V66.6577Z" transform="translate(65.8218 63.1641)"/>
</svg>
